<?xml version="1.0" encoding="UTF-8"?>
<svg width="41px" height="41px" viewBox="0 0 41 41" version="1.1" xmlns="http://www.w3.org/2000/svg" xmlns:xlink="http://www.w3.org/1999/xlink">
    <!-- Generator: Sketch 47.1 (45422) - http://www.bohemiancoding.com/sketch -->
    <title>Group 9</title>
    <desc>Created with Sketch.</desc>
    <defs></defs>
    <g id="WebView-Desktop-VN-new" stroke="none" stroke-width="1" fill="none" fill-rule="evenodd">
        <g id="00_chaomung" transform="translate(-1101.000000, -52.000000)">
            <g id="Group-29" transform="translate(960.000000, 52.500000)">
                <g id="Group-9" transform="translate(141.500212, 0.401994)">
                    <circle id="Oval-3-Copy-3" stroke="#DADADA" stroke-width="0.5" fill="#FFFFFF" cx="19.7236324" cy="19.7533474" r="19.6551724"></circle>
                    <g id="mail" transform="translate(20.947770, 19.546451) scale(-1, 1) translate(-20.947770, -19.546451) translate(10.447770, 13.546451)" fill-rule="nonzero" fill="#36BC99">
                        <path d="M20.2696552,2.35151911 C20.1449021,2.35151911 20.0512954,2.41683131 20.0169059,2.44490214 L13.954781,7.7717055 C13.8370177,7.877726 13.6896738,7.93375582 13.5286859,7.93375582 C13.3672507,7.93375582 13.2144268,7.87638397 13.0958248,7.76980429 L7.21806151,2.62137931 C7.16885368,2.57474371 7.05248835,2.48236719 6.90464119,2.48236719 C6.86756757,2.48236719 6.54246039,2.49506058 6.54246039,2.93356943 L6.54246039,10.8372973 C6.54246039,11.3520224 6.95770736,11.7707922 7.46818267,11.7707922 L19.7252377,11.7707922 C20.2347064,11.7707922 20.6337931,11.3607456 20.6337931,10.8372973 L20.6337931,2.81122088 C20.6337372,2.36443616 20.3068966,2.35151911 20.2696552,2.35151911 Z" id="Shape"></path>
                        <path d="M7.10074557,0.753271202 L13.0156943,5.85640261 C13.070438,5.90907735 13.252507,6.06139795 13.5285182,6.06139795 C13.7922833,6.06139795 13.9789935,5.91030755 14.0138863,5.87994408 L19.9986766,0.658546132 L20.0061696,0.651780056 C20.0875862,0.575396086 20.2569618,0.416477167 20.1763281,0.212544268 C20.1319292,0.100428705 20.0234483,0.0280149115 19.8998136,0.0280149115 L7.29343896,0.0280149115 C7.14195713,0.0280149115 7.00741845,0.114072693 6.95054986,0.247269338 C6.91207829,0.337520969 6.87914259,0.522050326 7.09157502,0.743709226 L7.10074557,0.753271202 Z" id="Shape"></path>
                        <path d="M4.47343896,3.10344828 L2.79589935,3.10344828 C2.48756757,3.10344828 2.23671948,3.35429637 2.23671948,3.66262815 L2.23671948,4.05405405 C2.23671948,4.36238583 2.48756757,4.61323392 2.79589935,4.61323392 L4.47343896,4.61323392 C4.78177074,4.61323392 5.03261883,4.36238583 5.03261883,4.05405405 L5.03261883,3.66262815 C5.03261883,3.35429637 4.78177074,3.10344828 4.47343896,3.10344828 Z" id="Shape"></path>
                        <path d="M4.47343896,5.5638397 L1.67753961,5.5638397 C1.36920783,5.5638397 1.11835974,5.81468779 1.11835974,6.12301957 L1.11835974,6.51444548 C1.11835974,6.82277726 1.36920783,7.07362535 1.67753961,7.07362535 L4.47343896,7.07362535 C4.78177074,7.07362535 5.03261883,6.82277726 5.03261883,6.51444548 L5.03261883,6.12301957 C5.03261883,5.81468779 4.78177074,5.5638397 4.47343896,5.5638397 Z" id="Shape"></path>
                        <path d="M4.47343896,8.02423113 L0.55917987,8.02423113 C0.250848089,8.02423113 0,8.27507922 0,8.583411 L0,8.97483691 C0,9.28316869 0.250848089,9.53401678 0.55917987,9.53401678 L4.47343896,9.53401678 C4.78177074,9.53401678 5.03261883,9.28316869 5.03261883,8.97483691 L5.03261883,8.583411 C5.03261883,8.27507922 4.78177074,8.02423113 4.47343896,8.02423113 Z" id="Shape"></path>
                    </g>
                </g>
            </g>
        </g>
    </g>
</svg>