<?xml version="1.0" encoding="UTF-8"?>
<svg width="41px" height="40px" viewBox="0 0 41 40" version="1.1" xmlns="http://www.w3.org/2000/svg" xmlns:xlink="http://www.w3.org/1999/xlink">
    <!-- Generator: Sketch 47.1 (45422) - http://www.bohemiancoding.com/sketch -->
    <title>Group 28</title>
    <desc>Created with Sketch.</desc>
    <defs></defs>
    <g id="WebView-Desktop-VN-new" stroke="none" stroke-width="1" fill="none" fill-rule="evenodd">
        <g id="00_chaomung" transform="translate(-960.000000, -53.000000)">
            <g id="Group-29" transform="translate(960.000000, 52.500000)">
                <g id="Group-28" transform="translate(0.220974, 0.401994)">
                    <circle id="Oval-3-Copy-2" stroke="#DADADA" stroke-width="0.5" fill="#FFFFFF" cx="20.0593104" cy="20.098175" r="19.6551724"></circle>
                    <g id="phone" transform="translate(20.145517, 20.287830) scale(-1, 1) translate(-20.145517, -20.287830) translate(12.645517, 10.787830)" fill-rule="nonzero" fill="#F96268">
                        <path d="M9.77493651,12.0549571 C9.02839056,12.0549571 8.34396759,12.3798215 7.70674232,12.7125709 C7.64923772,12.7426468 7.59133887,12.7572341 7.52983542,12.7572905 C7.15152164,12.7573468 6.42964465,12.2389043 5.13902974,9.76851582 C4.0365861,7.65830554 3.74968266,6.44614695 4.28620448,6.16572052 C5.740378,5.40622054 6.43392511,4.40521252 5.40008146,1.76563328 C4.93514469,0.577524122 4.29437115,0 3.44098266,0 C2.77362521,0 2.11375856,0.366204588 1.53150341,0.689266648 C1.40376548,0.760119519 1.2831241,0.827086184 1.16625629,0.888139056 C0.34114137,1.31917008 -0.0882563194,2.68936774 0.0176287351,4.55350792 C0.133877008,6.59883545 0.871974689,9.00569285 2.09596086,11.3487939 C4.45319873,15.8598352 7.59668945,18.210596 9.48358365,18.210596 C9.48369629,18.210596 9.48375261,18.210596 9.48386526,18.210596 C9.72469743,18.210596 9.94395835,18.1809708 10.1355089,18.1029087 C10.9688468,17.7633443 12.5200629,17.1362007 12.8893652,15.9298432 C13.0874491,15.282818 12.9249606,14.5643203 12.4064054,13.7892755 C11.6239824,12.6205974 10.7632721,12.0549571 9.77493651,12.0549571 Z" id="Shape"></path>
                        <path d="M13.4301111,4.82481021 C12.687564,3.64700795 11.5643939,2.61198154 10.4989537,2.12367121 C10.0749066,1.92936087 9.57336066,2.11544822 9.37893767,2.5396643 C9.18451469,2.96382406 9.37071468,3.46525738 9.79493076,3.65968036 C10.554656,4.00791828 11.4411618,4.83827113 12.0008319,5.72601593 C12.5656272,6.62175844 12.9326203,7.78981703 12.9139778,8.63256068 C12.9036146,9.09901814 13.2734238,9.48555491 13.7398812,9.49586181 C13.7462456,9.49603077 13.75261,9.49608709 13.7589743,9.49608709 C14.2168145,9.49608709 14.5930444,9.13005147 14.6031824,8.66990206 C14.6293157,7.48719979 14.1798111,6.01382052 13.4301111,4.82481021 Z" id="Shape"></path>
                        <path d="M7.9870561,6.23820672 C8.38164689,6.41911247 8.9256032,6.94634119 9.2523825,7.46455841 C9.58186525,7.98716874 9.82292272,8.71107332 9.81317904,9.14835607 C9.8027595,9.61481353 10.172456,10.0014066 10.6389135,10.0118262 C10.6453342,10.0119951 10.6517549,10.0120514 10.6581756,10.0120514 C11.1159595,10.0120514 11.4921893,9.64607215 11.5023836,9.1860917 C11.5220962,8.30488023 11.1043572,7.23397681 10.6816618,6.56346534 C10.2629652,5.89931823 9.48504801,5.06620561 8.69119171,4.70231021 C8.26708828,4.50783091 7.76559864,4.69414355 7.57111933,5.11819066 C7.37669635,5.5422941 7.56295266,6.04378374 7.9870561,6.23820672 Z" id="Shape"></path>
                    </g>
                </g>
            </g>
        </g>
    </g>
</svg>